<svg width="14" height="14" viewBox="0 0 14 14" fill="none" xmlns="http://www.w3.org/2000/svg">
<path d="M7.66644 7.4001V5.0001C7.66644 4.81121 7.60244 4.65299 7.47444 4.52543C7.34644 4.39788 7.18822 4.33388 6.99977 4.33343C6.81133 4.33299 6.65311 4.39699 6.52511 4.52543C6.39711 4.65388 6.33311 4.8121 6.33311 5.0001V7.6501C6.33311 7.73899 6.34977 7.82521 6.38311 7.90876C6.41644 7.99232 6.46644 8.06721 6.53311 8.13343L8.39977 10.0001C8.522 10.1223 8.67755 10.1834 8.86644 10.1834C9.05533 10.1834 9.21088 10.1223 9.33311 10.0001C9.45533 9.87788 9.51644 9.72232 9.51644 9.53343C9.51644 9.34454 9.45533 9.18899 9.33311 9.06676L7.66644 7.4001ZM6.99977 13.6668C6.16644 13.6668 5.38599 13.5085 4.65844 13.1921C3.93088 12.8757 3.29755 12.4479 2.75844 11.9088C2.21933 11.3697 1.79155 10.7363 1.47511 10.0088C1.15866 9.28121 1.00022 8.50054 0.999772 7.66676C0.999328 6.83299 1.15777 6.05254 1.47511 5.32543C1.79244 4.59832 2.21999 3.96499 2.75777 3.42543C3.29555 2.88588 3.92888 2.4581 4.65777 2.1421C5.38666 1.8261 6.16733 1.66765 6.99977 1.66676C7.83222 1.66588 8.61288 1.82432 9.34177 2.1421C10.0707 2.45988 10.704 2.88765 11.2418 3.42543C11.7796 3.96321 12.2073 4.59654 12.5251 5.32543C12.8429 6.05432 13.0011 6.83476 12.9998 7.66676C12.9984 8.49876 12.8402 9.27943 12.5251 10.0088C12.21 10.7381 11.7822 11.3714 11.2418 11.9088C10.7013 12.4461 10.068 12.8739 9.34177 13.1921C8.61555 13.5103 7.83488 13.6685 6.99977 13.6668ZM0.366439 3.86676C0.244217 3.74454 0.183105 3.58899 0.183105 3.4001C0.183105 3.21121 0.244217 3.05565 0.366439 2.93343L2.26644 1.03343C2.38866 0.911209 2.54422 0.850098 2.73311 0.850098C2.92199 0.850098 3.07755 0.911209 3.19977 1.03343C3.32199 1.15565 3.38311 1.31121 3.38311 1.5001C3.38311 1.68899 3.32199 1.84454 3.19977 1.96676L1.29977 3.86676C1.17755 3.98899 1.02199 4.0501 0.833106 4.0501C0.644217 4.0501 0.488661 3.98899 0.366439 3.86676ZM13.6331 3.86676C13.5109 3.98899 13.3553 4.0501 13.1664 4.0501C12.9776 4.0501 12.822 3.98899 12.6998 3.86676L10.7998 1.96676C10.6776 1.84454 10.6164 1.68899 10.6164 1.5001C10.6164 1.31121 10.6776 1.15565 10.7998 1.03343C10.922 0.911209 11.0775 0.850098 11.2664 0.850098C11.4553 0.850098 11.6109 0.911209 11.7331 1.03343L13.6331 2.93343C13.7553 3.05565 13.8164 3.21121 13.8164 3.4001C13.8164 3.58899 13.7553 3.74454 13.6331 3.86676ZM6.99977 12.3334C8.29977 12.3334 9.40266 11.8808 10.3084 10.9754C11.2142 10.0701 11.6669 8.96721 11.6664 7.66676C11.666 6.36632 11.2133 5.26365 10.3084 4.35876C9.40355 3.45388 8.30066 3.00099 6.99977 3.0001C5.69888 2.99921 4.59622 3.4521 3.69177 4.35876C2.78733 5.26543 2.33444 6.3681 2.33311 7.66676C2.33177 8.96543 2.78466 10.0683 3.69177 10.9754C4.59888 11.8825 5.70155 12.3352 6.99977 12.3334Z" fill="#555555"/>
</svg>
