<svg width="16" height="16" viewBox="0 0 16 16" fill="none" xmlns="http://www.w3.org/2000/svg">
<g clip-path="url(#clip0_467_347)">
<rect width="16" height="16" fill="white"/>
<path d="M0.46875 11.4375V4.5625C0.46875 3.69956 1.16831 3 2.03125 3H13.9688C14.8317 3 15.5312 3.69956 15.5312 4.5625V11.4375C15.5312 12.3004 14.8317 13 13.9688 13H2.03125C1.16831 13 0.46875 12.3004 0.46875 11.4375Z" stroke="#555555" stroke-miterlimit="10"/>
<path d="M9.3252 7H14.0845" stroke="#555555" stroke-miterlimit="10" stroke-linecap="round"/>
<path d="M9.3252 9.5H12.5211" stroke="#555555" stroke-miterlimit="10" stroke-linecap="round"/>
<path d="M7.23064 9.52344H2.98242C2.63723 9.52344 2.35742 9.24362 2.35742 8.89844V8.27344C2.35742 7.92825 2.63723 7.64844 2.98242 7.64844H7.23064C7.57583 7.64844 7.85564 7.92825 7.85564 8.27344V8.89844C7.85564 9.24362 7.57583 9.52344 7.23064 9.52344Z" stroke="#555555" stroke-miterlimit="10"/>
<path d="M6.46418 5.83124C6.44777 5.79598 6.41241 5.77344 6.37352 5.77344H3.84037C3.80149 5.77344 3.76613 5.79598 3.74972 5.83124L2.97 7.50624C2.93915 7.57253 2.98754 7.64844 3.06066 7.64844H7.15324C7.22636 7.64844 7.27475 7.57253 7.2439 7.50624L6.46418 5.83124Z" stroke="#555555" stroke-miterlimit="10" stroke-linejoin="round"/>
<path d="M2.74707 10.8516C2.74707 11.1277 2.97093 11.3516 3.24707 11.3516C3.52321 11.3516 3.74707 11.1277 3.74707 10.8516H2.74707ZM2.74707 9.52344V10.8516H3.74707V9.52344H2.74707Z" fill="#555555"/>
<path d="M6.46582 10.8516C6.46582 11.1277 6.68968 11.3516 6.96582 11.3516C7.24196 11.3516 7.46582 11.1277 7.46582 10.8516H6.46582ZM6.46582 9.52344V10.8516H7.46582V9.52344H6.46582Z" fill="#555555"/>
</g>
<defs>
<clipPath id="clip0_467_347">
<rect width="16" height="16" fill="white"/>
</clipPath>
</defs>
</svg>
