<svg width="72" height="90" viewBox="0 0 72 90"  xmlns="http://www.w3.org/2000/svg" fill="black">

<path d="M47.768 31.2369C47.328 30.8799 44.432 31.3839 43.725 31.6779C43.017 31.9729 42.118 34.7139 42.118 34.7139C42.458 35.2259 42.669 35.5489 42.669 35.5489C42.669 35.5489 42.928 35.7049 43.332 35.9869C43.332 35.9869 44.876 35.5649 46.443 34.6919C48.142 33.7449 48.166 31.5589 47.768 31.2369Z" />
<path d="M0.773075 37.9408C1.09707 37.4808 4.01608 37.1528 4.77808 37.2348C5.53908 37.3168 7.16407 39.6628 7.16407 39.6628C6.98007 40.2418 6.86707 40.6068 6.86707 40.6068C6.86707 40.6068 6.66205 40.8268 6.35205 41.2058C6.35205 41.2058 4.75207 41.2348 3.00507 40.8438C1.11207 40.4198 0.481075 38.3568 0.773075 37.9408Z" />
<path d="M48.29 55.0171L43.369 55.7191L43.759 58.4491C43.788 58.6541 43.979 58.7971 44.184 58.7681L49.595 57.9961C49.801 57.9671 49.943 57.7761 49.914 57.5711L49.484 54.5601C49.149 54.7851 48.752 54.9511 48.29 55.0171Z" />
<path d="M6.48611 60.9528C6.18511 60.9528 5.91012 60.8968 5.65112 60.8148L6.08112 63.8268C6.11012 64.0328 6.30113 64.1748 6.50613 64.1458L11.9171 63.3737C12.1221 63.3447 12.2651 63.1538 12.2361 62.9488L11.8461 60.2188L6.92511 60.9207C6.77411 60.9437 6.62711 60.9528 6.48611 60.9528Z" />
<path d="M48.288 41.9452C48.665 44.5832 49.621 51.2802 49.722 51.9902C49.823 52.7002 49.417 53.8452 48.149 54.0262C46.881 54.2072 27.4671 56.9782 27.4671 56.9782C27.4671 56.9782 8.05306 59.7492 6.78506 59.9302C5.51706 60.1112 4.80704 59.1252 4.70504 58.4152C4.60404 57.7052 3.64805 51.0082 3.27105 48.3702C2.76405 44.8192 6.51104 40.6082 6.51104 40.6082C6.51104 40.6082 8.78906 32.6982 9.58706 31.8172C10.4851 30.8262 16.83 29.1262 23.357 28.1952C29.885 27.2632 36.4521 27.1192 37.5911 27.8202C38.6031 28.4422 43.0041 35.3992 43.0041 35.3992C43.0041 35.3992 47.781 38.3942 48.288 41.9452ZM24.5001 36.1962C30.3341 35.3632 35.923 34.9202 39.43 34.8632C39.827 34.8572 40.1901 34.6342 40.3751 34.2832C40.5611 33.9322 40.541 33.5072 40.322 33.1752C38.92 31.0462 37.459 28.9602 37.011 28.6802C36.086 28.1022 29.9751 28.1502 23.4831 29.0772C16.9911 30.0042 11.1111 31.6682 10.3841 32.4812C10.0321 32.8752 9.21407 35.2872 8.46307 37.7232C8.34607 38.1032 8.44504 38.5172 8.72204 38.8022C8.99904 39.0872 9.40905 39.1982 9.79205 39.0932C13.177 38.1672 18.6661 37.0292 24.5001 36.1962ZM46.4791 41.9552C46.4791 41.9552 45.6781 39.8762 44.7131 39.5482C43.9381 39.2852 41.2861 40.2322 40.1311 40.6722C39.7921 40.8012 39.5391 41.0912 39.4571 41.4442L38.7411 44.5262C41.7271 43.7882 44.5231 42.8922 46.4791 41.9552ZM43.4791 49.3312C42.5751 49.4602 41.947 50.2972 42.076 51.2012C42.205 52.1052 43.043 52.7332 43.947 52.6042C44.851 52.4752 45.4791 51.6382 45.3501 50.7342C45.2211 49.8302 44.3831 49.2022 43.4791 49.3312ZM13.159 48.1782L11.6091 45.4192C11.4311 45.1032 11.1081 44.8962 10.7461 44.8672C9.51406 44.7682 6.70304 44.6002 6.03304 45.0702C5.19904 45.6552 5.01104 47.8752 5.01104 47.8752C7.15004 48.2272 10.0861 48.3052 13.159 48.1782ZM26.801 52.3122L17.094 53.6982C17.094 53.6982 17.2101 54.5102 17.3551 55.5242C17.5001 56.5392 18.0021 57.3992 19.5581 57.1772C21.1141 56.9552 27.3371 56.0662 27.3371 56.0662C27.3371 56.0662 33.5601 55.1782 35.1161 54.9552C36.6721 54.7332 36.9141 53.7672 36.7691 52.7522C36.6241 51.7372 36.508 50.9262 36.508 50.9262L26.801 52.3122ZM8.55206 55.9872C8.68106 56.8912 9.51805 57.5192 10.4221 57.3902C11.3261 57.2612 11.9541 56.4232 11.8251 55.5192C11.6961 54.6152 10.859 53.9872 9.95504 54.1162C9.05104 54.2452 8.42206 55.0832 8.55206 55.9872ZM36.8971 42.9692C36.7691 42.7992 36.559 42.7122 36.348 42.7422L25.6531 44.2692L14.9581 45.7962C14.7471 45.8262 14.569 45.9682 14.494 46.1672C14.419 46.3662 14.4581 46.5902 14.5961 46.7522C15.6261 47.9582 17.9441 50.0202 21.4501 49.5202C22.3291 49.3942 26.3031 48.8272 26.3031 48.8272C26.3031 48.8272 30.2771 48.2602 31.1561 48.1342C34.6621 47.6342 36.3101 45.0052 36.9611 43.5592C37.0501 43.3662 37.0251 43.1402 36.8971 42.9692Z" />
<path d="M71.5571 64.151H46.5371V60.28C46.5371 59.101 47.4931 58.145 48.6721 58.145H71.5571V64.151Z" />
<path d="M59.325 26.9448C58.912 26.9818 58.496 27.0078 58.073 27.0078C57.65 27.0078 57.234 26.9818 56.821 26.9448V57.1448H59.325V26.9448Z" />
<path d="M58.0821 8.45102C59.7521 8.45102 60.6831 9.14902 60.6831 10.722C60.6831 11.19 60.6161 11.576 60.4921 11.893L62.4441 13.845C63.1851 13.109 63.632 12.088 63.632 10.722C63.632 7.79202 61.5361 6.39404 58.1201 6.39404H54.9921L57.0491 8.45203H58.0821V8.45102Z" />
<path d="M56.821 19.8242V15.4912L53.967 12.6382V19.8242H56.821Z" />
<path d="M70.9731 13.109C70.9731 5.98498 65.1981 0.208984 58.0731 0.208984C50.9481 0.208984 45.1731 5.98398 45.1731 13.109C45.1731 20.234 50.9481 26.009 58.0731 26.009C65.1981 26.009 70.9731 20.233 70.9731 13.109ZM58.0731 3.34998C63.4631 3.34998 67.8321 7.71898 67.8321 13.109C67.8321 15.237 67.1491 17.204 65.9931 18.808L52.3741 5.18896C53.9781 4.03296 55.9451 3.34998 58.0731 3.34998ZM48.3141 13.109C48.3141 10.981 48.9971 9.01397 50.1531 7.40997L63.7721 21.029C62.1681 22.185 60.2011 22.868 58.0731 22.868C52.6831 22.868 48.3141 18.499 48.3141 13.109Z" />
<path d="M59.325 71.1571V89.5521H56.821V71.1571H59.325ZM48.235 70.1121L44.184 69.5341C43.978 69.5051 43.788 69.6481 43.759 69.8531L43.369 72.5831L48.29 73.2861C48.752 73.3521 49.149 73.5171 49.485 73.7431L49.915 70.7321C49.944 70.5271 49.802 70.3361 49.596 70.3071L48.27 70.1181C48.401 70.1431 48.535 70.1591 48.672 70.1591H71.557V64.1531H46.537V68.0241C46.537 69.0511 47.266 69.9101 48.235 70.1121ZM6.50699 64.1551C6.30099 64.1261 6.111 64.2681 6.082 64.4741L5.65201 67.4861C5.91101 67.4051 6.185 67.3491 6.487 67.3491C6.628 67.3491 6.775 67.3591 6.927 67.3801L11.848 68.0831L12.238 65.3531C12.267 65.1481 12.125 64.9571 11.919 64.9281L6.50699 64.1551ZM46.755 89.5521H11.108C10.642 89.4351 10.201 89.3201 9.79401 89.2091C9.41001 89.1041 9 89.2151 8.724 89.5001C8.709 89.5161 8.7 89.5351 8.686 89.5521H7.06601C7.00801 89.3601 6.952 89.1751 6.901 89.0051C6.787 89.1591 6.64 89.3501 6.478 89.5521H0.802002C1.03 88.7821 1.72099 87.7461 3.00699 87.4581C4.28499 87.1721 5.478 87.1111 6.03 87.0991C5.037 85.8221 2.88001 82.6821 3.27301 79.9301C3.65001 77.2921 4.606 70.5951 4.707 69.8851C4.808 69.1751 5.51799 68.1891 6.78699 68.3701C8.05499 68.5511 27.469 71.3221 27.469 71.3221C27.469 71.3221 46.883 74.0931 48.151 74.2751C49.419 74.4561 49.825 75.6011 49.724 76.3111C49.623 77.0211 48.667 83.7181 48.29 86.3561C48.124 87.5091 47.509 88.6011 46.755 89.5521ZM43.479 78.9711C44.383 79.1001 45.22 78.4721 45.349 77.5681C45.478 76.6641 44.85 75.8261 43.946 75.6971C43.042 75.5681 42.205 76.1961 42.076 77.1001C41.947 78.0051 42.575 78.8421 43.479 78.9711ZM17.094 74.6041L26.801 75.9901L36.508 77.3761C36.508 77.3761 36.624 76.5641 36.769 75.5501C36.914 74.5351 36.672 73.5691 35.116 73.3471C33.56 73.1251 27.337 72.2361 27.337 72.2361C27.337 72.2361 21.114 71.3481 19.558 71.1251C18.002 70.9021 17.5 71.7631 17.355 72.7781C17.21 73.7931 17.094 74.6041 17.094 74.6041ZM9.95499 74.1861C10.859 74.3151 11.696 73.6871 11.825 72.7831C11.954 71.8791 11.326 71.0421 10.422 70.9121C9.518 70.7831 8.681 71.4111 8.552 72.3151C8.422 73.2191 9.05099 74.0561 9.95499 74.1861ZM13.159 80.1241C10.086 79.9971 7.14999 80.0751 5.01099 80.4271C5.01099 80.4271 5.19899 82.6471 6.03299 83.2321C6.70299 83.7021 9.515 83.5341 10.746 83.4351C11.108 83.4061 11.431 83.1991 11.609 82.8831L13.159 80.1241ZM36.962 84.7421C36.31 83.2961 34.662 80.6671 31.157 80.1671C30.278 80.0411 26.303 79.4741 26.303 79.4741C26.303 79.4741 22.329 78.9071 21.45 78.7811C17.944 78.2801 15.627 80.3431 14.596 81.5491C14.458 81.7111 14.419 81.9351 14.494 82.1341C14.569 82.3331 14.747 82.4751 14.958 82.5051L25.653 84.0321L36.348 85.5591C36.559 85.5891 36.769 85.5031 36.897 85.3321C37.025 85.1621 37.05 84.9361 36.962 84.7421ZM46.479 86.3471C44.524 85.4101 41.727 84.5141 38.741 83.7761L39.457 86.8581C39.539 87.2111 39.793 87.5011 40.131 87.6301C41.286 88.0701 43.938 89.0181 44.713 88.7541C45.678 88.4261 46.479 86.3471 46.479 86.3471Z" fill="url(#paint0_linear_130_1152)"/>
<defs>
<linearGradient id="paint0_linear_130_1152" x1="36.179" y1="89.5521" x2="36.179" y2="64.151" gradientUnits="userSpaceOnUse">
<stop stop-color="white"/>
<stop offset="0.1911" stop-color="#FBFCFC"/>
<stop offset="0.3701" stop-color="#F0F1F2"/>
<stop offset="0.5444" stop-color="#DDDFE2"/>
<stop offset="0.7156" stop-color="#C2C6CB"/>
<stop offset="0.8831" stop-color="#A0A7AE"/>
<stop offset="1" stop-color="#848C96"/>
</linearGradient>
</defs>
</svg>
