<svg width="90" height="92" viewBox="0 0 90 92" fill ="black"  xmlns="http://www.w3.org/2000/svg">

<path d="M45.9729 0.731934H45.7239L45.9729 4.95993L46.2219 0.731934H45.9729Z" />
<path d="M42.2701 1.65484L42.05 1.77184L44.2551 5.38784L42.4901 1.53784L42.2701 1.65484Z" />
<path d="M39.4339 4.20795L39.2949 4.41495L42.9389 6.57295L39.5729 4.00195L39.4339 4.20795Z" />
<path d="M38.129 7.79387L38.103 8.04187L42.334 8.23587L38.155 7.54688L38.129 7.79387Z" />
<path d="M38.6599 11.573L38.7529 11.804L42.5799 9.98999L38.5669 11.343L38.6599 11.573Z" />
<path d="M49.6759 1.65484L49.8959 1.77184L47.6909 5.38784L49.4559 1.53784L49.6759 1.65484Z" />
<path d="M52.5121 4.20795L52.6511 4.41495L49.0071 6.57295L52.3731 4.00195L52.5121 4.20795Z" />
<path d="M53.8171 7.79387L53.8431 8.04187L49.6121 8.23587L53.7911 7.54688L53.8171 7.79387Z" />
<path d="M53.286 11.573L53.193 11.804L49.366 9.98999L53.379 11.343L53.286 11.573Z" />
<path d="M51.0649 27.056C51.0649 27.346 50.8299 27.58 50.5409 27.58H41.4049C41.1159 27.58 40.8809 27.345 40.8809 27.056V5.20295C40.8809 4.91395 41.1159 4.67896 41.4049 4.67896H50.5409C50.8299 4.67896 51.0649 4.91395 51.0649 5.20295V27.056ZM45.9729 5.11996C44.0409 5.11996 42.4739 6.68595 42.4739 8.61795C42.4739 10.55 44.0399 12.117 45.9729 12.117C47.9049 12.117 49.4719 10.551 49.4719 8.61795C49.4719 6.68495 47.9049 5.11996 45.9729 5.11996ZM45.9729 12.631C44.0409 12.631 42.4739 14.197 42.4739 16.129C42.4739 18.061 44.0399 19.628 45.9729 19.628C47.9049 19.628 49.4719 18.062 49.4719 16.129C49.4709 14.198 47.9049 12.631 45.9729 12.631ZM45.9729 20.142C44.0409 20.142 42.4739 21.708 42.4739 23.641C42.4739 25.574 44.0399 27.14 45.9729 27.14C47.9049 27.14 49.4719 25.574 49.4719 23.641C49.4719 21.708 47.9049 20.142 45.9729 20.142ZM41.3219 14.287L41.4969 14.429L43.8149 11.422L41.1469 14.146L41.3219 14.287ZM50.7979 14.146L48.1299 11.422L50.4479 14.429L50.6229 14.287L50.7979 14.146Z" />
<path d="M28.102 58.7259C28.102 62.8009 24.799 66.1049 20.724 66.1049C16.649 66.1049 13.3459 62.8019 13.3459 58.7259C13.3459 54.6509 16.649 51.3479 20.724 51.3479C24.799 51.3479 28.102 54.6509 28.102 58.7259ZM20.723 53.5239C17.85 53.5239 15.521 55.8529 15.521 58.7259C15.521 61.5989 17.85 63.9279 20.723 63.9279C23.596 63.9279 25.925 61.5989 25.925 58.7259C25.925 55.8529 23.596 53.5239 20.723 53.5239Z" />
<path d="M22.572 58.726C22.572 59.747 21.744 60.575 20.723 60.575C19.702 60.575 18.874 59.747 18.874 58.726C18.874 57.705 19.702 56.877 20.723 56.877C21.744 56.877 22.572 57.705 22.572 58.726ZM20.723 58.121C20.389 58.121 20.118 58.392 20.118 58.726C20.118 59.06 20.389 59.33 20.723 59.33C21.057 59.33 21.328 59.059 21.328 58.726C21.328 58.393 21.057 58.121 20.723 58.121Z" />
<path d="M21.1519 53.8699C21.2979 53.8699 21.4369 53.9349 21.5319 54.0469C21.6259 54.1589 21.6669 54.3069 21.6429 54.4509L21.1009 57.6569C21.0759 57.8049 20.9479 57.9139 20.7969 57.9139H20.7239H20.6509C20.5009 57.9139 20.3719 57.8059 20.3469 57.6569L19.8039 54.4509C19.7799 54.3059 19.8199 54.1589 19.9149 54.0469C20.0089 53.9349 20.1489 53.8699 20.2949 53.8699H20.7239H21.1519ZM20.7229 56.9019L21.1519 54.3669H20.2939L20.7229 56.9019Z" />
<path d="M16.238 56.8168C16.283 56.6778 16.388 56.5648 16.523 56.5098C16.659 56.4548 16.812 56.4618 16.942 56.5298L19.823 58.0368C19.956 58.1068 20.02 58.2618 19.973 58.4048L19.95 58.4748L19.927 58.5448C19.881 58.6878 19.738 58.7758 19.589 58.7538L16.372 58.2788C16.227 58.2578 16.099 58.1728 16.022 58.0488C15.945 57.9238 15.926 57.7718 15.972 57.6328L16.105 57.2248L16.238 56.8168ZM18.989 58.1618L16.711 56.9708L16.446 57.7868L18.989 58.1618Z" />
<path d="M17.522 62.4019C17.403 62.3159 17.329 62.1819 17.318 62.0359C17.307 61.8899 17.362 61.7469 17.466 61.6439L19.789 59.3689C19.896 59.2639 20.064 59.2509 20.185 59.3399L20.244 59.3829L20.303 59.4259C20.425 59.5139 20.465 59.6779 20.398 59.8119L18.953 62.7249C18.888 62.8559 18.768 62.9519 18.626 62.9869C18.484 63.0219 18.333 62.9919 18.215 62.9059L17.868 62.6539L17.522 62.4019ZM19.651 60.2009L17.814 61.9999L18.508 62.5039L19.651 60.2009Z" />
<path d="M23.2309 62.9069C23.1129 62.9929 22.9619 63.0229 22.8199 62.9879C22.6779 62.9529 22.5579 62.8569 22.4929 62.7259L21.0469 59.8129C20.9799 59.6779 21.0199 59.5149 21.1419 59.4269L21.2009 59.3839L21.2599 59.3409C21.3819 59.2529 21.5489 59.2649 21.6559 59.3699L23.9789 61.6449C24.0839 61.7479 24.1379 61.8909 24.1269 62.0369C24.1159 62.1829 24.0419 62.3169 23.9229 62.4029L23.5759 62.6549L23.2309 62.9069ZM21.7949 60.2009L22.9379 62.5039L23.6319 61.9999L21.7949 60.2009Z" />
<path d="M25.4739 57.6328C25.5189 57.7718 25.5009 57.9238 25.4239 58.0488C25.3469 58.1728 25.2189 58.2578 25.0739 58.2788L21.8569 58.7538C21.7079 58.7758 21.5659 58.6868 21.5189 58.5448L21.4959 58.4748L21.4729 58.4048C21.4259 58.2618 21.4899 58.1068 21.6229 58.0368L24.5039 56.5298C24.6339 56.4618 24.7869 56.4548 24.9229 56.5098C25.0589 56.5648 25.1629 56.6778 25.2079 56.8168L25.3409 57.2248L25.4739 57.6328ZM22.4579 58.1618L25.0009 57.7868L24.7359 56.9708L22.4579 58.1618Z" />
<path d="M81.1349 58.7259C81.1349 62.8009 77.8319 66.1049 73.7559 66.1049C69.6809 66.1049 66.3779 62.8019 66.3779 58.7259C66.3779 54.6509 69.6809 51.3479 73.7559 51.3479C77.8319 51.3479 81.1349 54.6509 81.1349 58.7259ZM73.7569 53.5239C70.8839 53.5239 68.5559 55.8529 68.5559 58.7259C68.5559 61.5989 70.8849 63.9279 73.7569 63.9279C76.6299 63.9279 78.9589 61.5989 78.9589 58.7259C78.9579 55.8529 76.6299 53.5239 73.7569 53.5239Z" />
<path d="M75.606 58.726C75.606 59.747 74.778 60.575 73.757 60.575C72.736 60.575 71.908 59.747 71.908 58.726C71.908 57.705 72.736 56.877 73.757 56.877C74.778 56.877 75.606 57.705 75.606 58.726ZM73.757 58.121C73.423 58.121 73.153 58.392 73.153 58.726C73.153 59.06 73.424 59.33 73.757 59.33C74.091 59.33 74.362 59.059 74.362 58.726C74.362 58.393 74.091 58.121 73.757 58.121Z" />
<path d="M74.1859 53.8699C74.3319 53.8699 74.4719 53.9349 74.5659 54.0469C74.6609 54.1589 74.7009 54.3069 74.6769 54.4509L74.1339 57.6569C74.1089 57.8049 73.9809 57.9139 73.8299 57.9139H73.7569H73.6839C73.5339 57.9139 73.4049 57.8059 73.3799 57.6569L72.8369 54.4509C72.8129 54.3059 72.8529 54.1589 72.9479 54.0469C73.0419 53.9349 73.1819 53.8699 73.3279 53.8699H73.7569H74.1859ZM73.7569 56.9019L74.1859 54.3669H73.3279L73.7569 56.9019Z" />
<path d="M69.271 56.8168C69.316 56.6778 69.421 56.5648 69.556 56.5098C69.692 56.4548 69.845 56.4618 69.975 56.5298L72.856 58.0368C72.989 58.1068 73.053 58.2618 73.006 58.4048L72.983 58.4748L72.96 58.5448C72.913 58.6878 72.771 58.7758 72.622 58.7538L69.405 58.2788C69.26 58.2578 69.132 58.1728 69.055 58.0488C68.978 57.9238 68.959 57.7718 69.005 57.6328L69.138 57.2248L69.271 56.8168ZM72.022 58.1618L69.744 56.9708L69.479 57.7868L72.022 58.1618Z" />
<path d="M70.555 62.4019C70.437 62.3159 70.362 62.1819 70.351 62.0359C70.34 61.8899 70.395 61.7469 70.499 61.6439L72.822 59.3689C72.929 59.2639 73.097 59.2509 73.218 59.3399L73.277 59.3829L73.336 59.4259C73.458 59.5139 73.498 59.6779 73.431 59.8119L71.986 62.7249C71.921 62.8559 71.801 62.9519 71.659 62.9869C71.517 63.0219 71.366 62.9919 71.248 62.9059L70.901 62.6539L70.555 62.4019ZM72.685 60.2009L70.848 61.9999L71.542 62.5039L72.685 60.2009Z" />
<path d="M76.2639 62.9069C76.1459 62.9929 75.9949 63.0229 75.8529 62.9879C75.7109 62.9529 75.5909 62.8569 75.5259 62.7259L74.0809 59.8129C74.0139 59.6779 74.0539 59.5149 74.1759 59.4269L74.2349 59.3839L74.2939 59.3409C74.4159 59.2529 74.5829 59.2649 74.6899 59.3699L77.0129 61.6449C77.1179 61.7479 77.1719 61.8909 77.1609 62.0369C77.1499 62.1829 77.0759 62.3169 76.9569 62.4029L76.6099 62.6549L76.2639 62.9069ZM74.8289 60.2009L75.9719 62.5039L76.6649 61.9999L74.8289 60.2009Z" />
<path d="M78.5079 57.6328C78.5529 57.7718 78.5349 57.9238 78.4579 58.0488C78.3809 58.1728 78.2529 58.2578 78.1079 58.2788L74.8909 58.7538C74.7419 58.7758 74.5999 58.6868 74.5529 58.5448L74.5299 58.4748L74.5069 58.4048C74.4609 58.2618 74.5239 58.1068 74.6569 58.0368L77.5379 56.5298C77.6679 56.4618 77.8209 56.4548 77.9569 56.5098C78.0929 56.5648 78.1969 56.6778 78.2419 56.8168L78.3749 57.2248L78.5079 57.6328ZM75.4909 58.1618L78.0339 57.7868L77.7689 56.9708L75.4909 58.1618Z" />
<path d="M89.2709 61.8709C89.2579 62.0219 88.1099 62.7989 85.0899 62.7989C85.0899 62.7989 84.6629 62.7989 82.1279 62.7989C81.9569 62.0469 82.1299 60.2039 82.1299 58.7249C82.1299 54.1079 78.3729 50.3519 73.7559 50.3519C69.1379 50.3519 65.3819 54.1089 65.3819 58.7249C65.3819 60.2039 65.3819 62.7929 65.3819 62.7929C53.8979 62.7929 39.6629 62.7979 29.1999 62.7979C28.8939 61.5369 29.0959 60.2029 29.0959 58.7239C29.0959 54.1069 25.3389 50.3509 20.7219 50.3509C16.1049 50.3509 12.3479 54.1079 12.3479 58.7239C12.3479 59.4869 12.4539 60.2249 12.6479 60.9259C12.7059 61.1359 12.6209 61.3589 12.4389 61.4769C12.2559 61.5949 12.0179 61.5819 11.8499 61.4429C9.78789 59.7439 7.98289 56.8929 8.30689 55.5849C9.20889 51.9399 10.1889 49.3229 10.7489 48.7629C11.3089 48.2029 14.5269 47.3669 18.9849 46.7459C25.2469 43.2209 36.4019 39.1389 47.6809 39.1389C56.3069 39.1389 64.3829 47.3319 64.3829 47.3319C73.8039 47.3319 82.0959 49.1809 87.9539 54.3739C88.1499 54.5469 88.2529 54.8029 88.2329 55.0639C88.1369 56.2969 87.8609 59.8969 87.8799 59.9819C88.0559 60.7719 89.2899 61.6459 89.2709 61.8709ZM36.2509 49.2289H32.0839C26.7729 49.2289 31.2569 55.5979 34.5059 57.5279C36.5399 58.7359 34.5309 55.9879 34.1629 53.0579C33.7869 50.0639 36.2509 49.2289 36.2509 49.2289ZM86.4099 56.2729C86.3059 56.3769 84.5049 60.5859 84.5049 60.5859L87.1359 59.8809L87.5089 55.7339C87.5089 55.7339 86.5129 56.1689 86.4099 56.2729ZM80.2979 50.3379C80.2979 50.3379 81.6179 51.9019 83.0939 52.8389C83.8219 53.3009 84.8229 53.1679 84.8229 53.1679C84.8229 53.1679 84.1539 52.1659 82.9339 51.3479C81.6569 50.4909 80.2979 50.3379 80.2979 50.3379ZM20.2139 46.3809C21.1519 48.1919 28.5189 45.4239 37.5639 40.3699C30.7149 41.7009 24.5219 44.1049 20.2139 46.3809ZM11.9509 49.0369C11.4119 49.0369 10.8139 49.0369 10.8139 49.0369C10.3459 49.7669 9.68988 51.5069 9.02988 53.8689C9.92388 53.8679 12.4899 49.0369 11.9509 49.0369ZM40.4179 40.7539C36.6879 42.0029 34.3659 43.9519 32.4579 46.3159C31.5489 47.4419 32.9219 47.8419 33.6199 47.8419H40.8959L40.4179 40.7539ZM62.7059 47.3069C60.8049 45.5669 54.3819 40.1829 47.7069 40.1829C45.8439 40.1829 43.9799 40.3069 42.1409 40.5239L43.2609 47.8419H62.4979C62.6249 47.8419 62.7389 47.7639 62.7849 47.6459C62.8309 47.5269 62.7999 47.3929 62.7059 47.3069Z" />
<path d="M8.54509 47.2559H2.87109V47.8469H8.15909C8.28909 47.6239 8.41709 47.4269 8.54509 47.2559Z" />
<path d="M6.73492 51.313H1.56592V51.904H6.54592C6.60892 51.697 6.67192 51.509 6.73492 51.313Z" />
<path d="M7.46999 49.2849H2.21899V49.8759H7.23299C7.31199 49.6669 7.39099 49.4749 7.46999 49.2849Z" />
<path d="M30.4029 39.1418H5.48193V39.7328H28.5169C29.1359 39.5288 29.7639 39.3318 30.4029 39.1418Z" />
<path d="M6.13206 53.342H0.914062V53.933H5.97806C6.02906 53.737 6.08006 53.53 6.13206 53.342Z" />
<path d="M24.5591 41.1699H4.8291V41.7609H23.1281C23.5961 41.5619 24.0721 41.3649 24.5591 41.1699Z" />
<path d="M20.002 43.199H4.17603V43.79H18.846C19.221 43.593 19.606 43.396 20.002 43.199Z" />
<path d="M12.5979 45.2271H3.52393V45.8181H10.6999C11.1879 45.6331 11.8049 45.4341 12.5979 45.2271Z" />
<path d="M5.64798 55.3699H0.260986V55.9609H5.61798C5.61398 55.7619 5.62398 55.5649 5.64798 55.3699Z" />
<path d="M4.82898 91.039V90.448H23.128C23.595 90.648 24.071 90.844 24.559 91.039H4.82898ZM4.17699 88.419V89.01H20.003C19.606 88.813 19.222 88.616 18.847 88.419H4.17699ZM87.882 72.225C87.863 72.309 88.14 75.91 88.235 77.143C88.255 77.404 88.151 77.66 87.956 77.833C82.098 83.025 73.806 84.875 64.385 84.875C64.385 84.875 60.171 89.131 54.589 91.507H51.447C56.655 90.116 61.166 86.314 62.706 84.903C62.8 84.817 62.831 84.683 62.785 84.564C62.739 84.446 62.625 84.368 62.498 84.368H43.261L42.169 91.507H36.958C28.194 86.67 21.132 84.059 20.215 85.829C24.195 87.932 29.793 90.133 36.021 91.507H34.955C28.525 89.996 22.832 87.626 18.988 85.461C14.53 84.84 11.311 84.004 10.752 83.444C10.193 82.884 9.21198 80.268 8.30998 76.622C7.98598 75.314 9.79098 72.462 11.853 70.763C12.021 70.625 12.259 70.611 12.442 70.729C12.625 70.847 12.709 71.071 12.651 71.28C12.456 71.981 12.351 72.719 12.351 73.482C12.351 78.099 16.108 81.855 20.725 81.855C25.343 81.855 29.099 78.099 29.099 73.482C29.099 72.003 28.897 70.669 29.203 69.409C39.666 69.409 53.9 69.414 65.385 69.414C65.385 69.414 65.385 72.004 65.385 73.482C65.385 78.099 69.142 81.855 73.759 81.855C78.376 81.855 82.133 78.099 82.133 73.482C82.133 72.003 81.959 70.16 82.131 69.409C84.666 69.409 85.093 69.409 85.093 69.409C88.113 69.409 89.261 70.187 89.274 70.337C89.29 70.563 88.056 71.437 87.882 72.225ZM9.02998 78.339C9.68898 80.702 10.346 82.441 10.814 83.172C10.814 83.172 11.412 83.172 11.951 83.172C12.49 83.172 9.92398 78.341 9.02998 78.339ZM32.084 82.98H36.251C36.251 82.98 33.787 82.145 34.163 79.151C34.531 76.221 36.54 73.472 34.506 74.681C31.257 76.611 26.773 82.98 32.084 82.98ZM40.897 84.367H33.621C32.923 84.367 31.55 84.767 32.459 85.894C34.367 88.258 36.689 90.207 40.419 91.456L40.897 84.367ZM84.824 79.041C84.824 79.041 83.823 78.908 83.095 79.37C81.618 80.307 80.298 81.871 80.298 81.871C80.298 81.871 81.656 81.718 82.934 80.861C84.155 80.043 84.824 79.041 84.824 79.041ZM87.509 76.475L87.136 72.328L84.505 71.623C84.505 71.623 86.307 75.832 86.41 75.936C86.513 76.04 87.509 76.475 87.509 76.475ZM3.52399 86.39V86.981H12.598C11.805 86.775 11.188 86.576 10.7 86.39H3.52399ZM72.218 74.506L69.975 75.679C69.845 75.747 69.692 75.754 69.556 75.699C69.42 75.644 69.316 75.531 69.271 75.392L69.139 74.984L69.006 74.576C68.961 74.437 68.979 74.285 69.056 74.16C69.133 74.036 69.261 73.951 69.406 73.93L71.915 73.56C71.914 73.534 71.907 73.51 71.907 73.484C71.907 73.05 72.063 72.657 72.313 72.341L70.499 70.565C70.394 70.463 70.34 70.319 70.351 70.173C70.362 70.027 70.436 69.893 70.555 69.807L70.902 69.555L71.249 69.303C71.367 69.217 71.518 69.187 71.66 69.222C71.802 69.257 71.922 69.353 71.987 69.484L73.114 71.755C73.315 71.68 73.529 71.634 73.756 71.634C73.983 71.634 74.197 71.68 74.398 71.755L75.525 69.484C75.59 69.353 75.71 69.257 75.852 69.222C75.994 69.187 76.145 69.216 76.263 69.303L76.61 69.555L76.957 69.807C77.075 69.893 77.15 70.027 77.161 70.173C77.172 70.319 77.117 70.462 77.013 70.565L75.2 72.34C75.45 72.655 75.606 73.049 75.606 73.483C75.606 73.509 75.599 73.533 75.598 73.559L78.107 73.929C78.252 73.95 78.38 74.034 78.457 74.159C78.534 74.284 78.553 74.436 78.507 74.575L78.374 74.983L78.241 75.391C78.196 75.53 78.091 75.643 77.956 75.698C77.82 75.753 77.667 75.746 77.537 75.678L75.294 74.505C75.052 74.869 74.682 75.135 74.251 75.255L74.674 77.758C74.699 77.902 74.658 78.05 74.563 78.162C74.468 78.274 74.329 78.338 74.183 78.338H73.754H73.325C73.179 78.338 73.04 78.273 72.945 78.162C72.85 78.05 72.81 77.902 72.834 77.758L73.258 75.255C72.83 75.135 72.46 74.869 72.218 74.506ZM75.507 74.054L77.77 75.237L78.035 74.421L75.509 74.048C75.508 74.051 75.507 74.054 75.507 74.054ZM74.838 71.989C74.84 71.99 74.841 71.992 74.843 71.993L76.665 70.209L75.971 69.705L74.838 71.989ZM74.186 77.841L73.761 75.331H73.757H73.753L73.329 77.841H74.186ZM73.152 73.483C73.152 73.817 73.423 74.088 73.756 74.088C74.09 74.088 74.361 73.817 74.361 73.483C74.361 73.149 74.09 72.878 73.756 72.878C73.423 72.878 73.152 73.149 73.152 73.483ZM72.67 71.993C72.672 71.992 72.673 71.99 72.675 71.989L71.541 69.705L70.847 70.209L72.67 71.993ZM72.007 74.055C72.006 74.053 72.006 74.051 72.005 74.049L69.479 74.422L69.744 75.238L72.007 74.055ZM13.345 73.483C13.345 69.408 16.648 66.104 20.723 66.104C24.798 66.104 28.101 69.407 28.101 73.483C28.101 77.558 24.798 80.862 20.723 80.862C16.648 80.862 13.345 77.558 13.345 73.483ZM15.522 73.483C15.522 76.356 17.851 78.685 20.724 78.685C23.597 78.685 25.926 76.356 25.926 73.483C25.926 70.61 23.597 68.281 20.724 68.281C17.851 68.281 15.522 70.61 15.522 73.483ZM19.184 74.506L16.941 75.679C16.811 75.747 16.658 75.754 16.522 75.699C16.386 75.644 16.282 75.531 16.237 75.392L16.104 74.984L15.971 74.576C15.926 74.437 15.944 74.285 16.021 74.16C16.098 74.036 16.226 73.951 16.371 73.93L18.88 73.56C18.879 73.534 18.872 73.51 18.872 73.484C18.872 73.05 19.028 72.657 19.278 72.341L17.464 70.565C17.359 70.463 17.305 70.319 17.316 70.173C17.327 70.027 17.401 69.893 17.52 69.807L17.867 69.555L18.214 69.303C18.332 69.217 18.483 69.187 18.625 69.222C18.767 69.257 18.887 69.353 18.952 69.484L20.079 71.755C20.28 71.68 20.494 71.634 20.721 71.634C20.948 71.634 21.162 71.68 21.363 71.755L22.49 69.484C22.555 69.353 22.675 69.257 22.817 69.222C22.959 69.187 23.11 69.216 23.228 69.303L23.575 69.555L23.922 69.807C24.04 69.893 24.115 70.027 24.126 70.173C24.137 70.319 24.083 70.462 23.978 70.565L22.164 72.341C22.414 72.656 22.57 73.05 22.57 73.484C22.57 73.51 22.563 73.534 22.562 73.56L25.071 73.93C25.216 73.951 25.344 74.035 25.421 74.16C25.498 74.285 25.517 74.437 25.471 74.576L25.339 74.984L25.206 75.392C25.161 75.531 25.056 75.644 24.921 75.699C24.785 75.754 24.632 75.747 24.502 75.679L22.259 74.506C22.017 74.87 21.647 75.136 21.216 75.256L21.639 77.759C21.663 77.903 21.623 78.051 21.528 78.163C21.433 78.275 21.294 78.339 21.148 78.339H20.719H20.29C20.144 78.339 20.004 78.274 19.91 78.163C19.816 78.051 19.775 77.903 19.8 77.759L20.223 75.256C19.796 75.135 19.426 74.869 19.184 74.506ZM22.473 74.054L24.736 75.237L25.001 74.421L22.475 74.048C22.474 74.051 22.473 74.054 22.473 74.054ZM21.804 71.989C21.806 71.99 21.807 71.992 21.809 71.993L23.631 70.209L22.937 69.705L21.804 71.989ZM21.152 77.841L20.727 75.331H20.723H20.719L20.295 77.841H21.152ZM20.119 73.483C20.119 73.817 20.39 74.088 20.724 74.088C21.058 74.088 21.329 73.817 21.329 73.483C21.329 73.149 21.058 72.878 20.724 72.878C20.389 72.878 20.119 73.149 20.119 73.483ZM19.637 71.993C19.639 71.992 19.64 71.99 19.642 71.989L18.508 69.705L17.814 70.209L19.637 71.993ZM18.974 74.055C18.973 74.053 18.973 74.051 18.972 74.049L16.446 74.422L16.711 75.238L18.974 74.055ZM66.378 73.483C66.378 69.408 69.681 66.104 73.756 66.104C77.831 66.104 81.135 69.407 81.135 73.483C81.135 77.558 77.832 80.862 73.756 80.862C69.682 80.862 66.378 77.558 66.378 73.483ZM68.555 73.483C68.555 76.356 70.884 78.685 73.756 78.685C76.629 78.685 78.958 76.356 78.958 73.483C78.958 70.61 76.629 68.281 73.756 68.281C70.884 68.281 68.555 70.61 68.555 73.483ZM1.56599 80.305V80.896H6.73499C6.67199 80.7 6.60899 80.512 6.54599 80.305H1.56599ZM2.87099 84.362V84.953H8.54498C8.41698 84.782 8.28798 84.585 8.15898 84.362H2.87099ZM0.260986 76.247V76.838H5.64798C5.62398 76.643 5.61399 76.447 5.61699 76.247H0.260986ZM2.21899 82.333V82.924H7.46999C7.39099 82.734 7.31199 82.542 7.23299 82.333H2.21899ZM0.912987 78.276V78.867H6.13098C6.07998 78.679 6.02799 78.472 5.97699 78.276H0.912987Z" fill="url(#paint0_linear_130_780)"/>
<defs>
<linearGradient id="paint0_linear_130_780" x1="44.7661" y1="91.5055" x2="44.7661" y2="66.1045" gradientUnits="userSpaceOnUse">
<stop stop-color="white"/>
<stop offset="0.1911" stop-color="#FBFCFC"/>
<stop offset="0.3701" stop-color="#F0F1F2"/>
<stop offset="0.5444" stop-color="#DDDFE2"/>
<stop offset="0.7156" stop-color="#C2C6CB"/>
<stop offset="0.8831" stop-color="#A0A7AE"/>
<stop offset="1" stop-color="#848C96"/>
</linearGradient>
</defs>
</svg>
